# xmcd
#
# Track frame offsets: 
#        150
#        12535
#        25631
#        39670
#        52166
#        66935
#        80876
#        94698
#        105165
#        117845
#        131645
#        143891
#        157140
#        169899
#        185100
#        198579
#        213323
#        227722
#        243113
#        257332
#
# Disc length: 3616 seconds
#
# Revision: 1
# Processed by: cddbd v1.5.2PL0 Copyright (c) Steve Scherf et al.
# Submitted via: ExactAudioCopyFreeDBPlugin 1.0
#
DISCID=1d0e1e14
DTITLE=Elmore James, Lonnie Johnson - ABC Of The Blues - Vol. 19 James
DTITLE=, Johnson
DYEAR=2010
DGENRE=Blues
TTITLE0=Elmore James - Dust My Broom
TTITLE1=Elmore James - Sho' Nuff I Do
TTITLE2=Elmore James - Please Find My Baby
TTITLE3=Elmore James - Cry For Me Baby
TTITLE4=Elmore James - Sunny Land
TTITLE5=Elmore James - The 12 Year Old Boy
TTITLE6=Elmore James - It Hurts Me, Too
TTITLE7=Elmore James - Hawaiian Boogie
TTITLE8=Elmore James - T.V. Mama
TTITLE9=Lonnie Johnson - Have To Change Keys (To Play These Blues)
TTITLE10=Lonnie Johnson - Mr. Johnson's Blues
TTITLE11=Lonnie Johnson - Mean Old Bedbug Blues
TTITLE12=Lonnie Johnson - Toothache Blues Pt. 1
TTITLE13=Lonnie Johnson - Toothache Blues Pt. 2
TTITLE14=Lonnie Johnson - Sweet Potato Blues
TTITLE15=Lonnie Johnson - Guitar Blues
TTITLE16=Lonnie Johnson - She's Making Whoopee In Hell Tonight
TTITLE17=Lonnie Johnson - Got The Blues For Murder Only
TTITLE18=Lonnie Johnson - I'm Nuts About That Gal
TTITLE19=Lonnie Johnson - Deep Blue Sea Blues
EXTD=
EXTT0=
EXTT1=
EXTT2=
EXTT3=
EXTT4=
EXTT5=
EXTT6=
EXTT7=
EXTT8=
EXTT9=
EXTT10=
EXTT11=
EXTT12=
EXTT13=
EXTT14=
EXTT15=
EXTT16=
EXTT17=
EXTT18=
EXTT19=
PLAYORDER=
